<svg width="15" height="9" viewBox="0 0 15 9" fill="none" xmlns="http://www.w3.org/2000/svg">
<path d="M0.803536 5.30455L11.4107 5.30455L9.08032 7.6349C8.75889 7.95633 8.75889 8.43848 9.08032 8.7599C9.40175 9.08133 9.88389 9.08133 10.2053 8.7599L13.9018 5.06348C14.2232 4.74205 14.2232 4.2599 13.9018 3.93848L10.2053 0.242048C9.88389 -0.0793814 9.40175 -0.0793814 9.08032 0.242048C8.75889 0.563476 8.75889 1.04562 9.08032 1.36705L11.4107 3.6974L0.803536 3.6974C0.40175 3.6974 -3.58041e-05 4.01883 -3.58462e-05 4.50098C-3.58884e-05 4.98312 0.40175 5.30455 0.803536 5.30455Z" fill="#4089ED"/>
</svg>
